M48
INCH
T01C0.0200
T02C0.0300
T03C0.0320
T04C0.0380
T05C0.0400
%
T01
X-001968Y+011023
X-001968Y+012204
T02
X-012598Y+001968
X-011598Y+001968
X-010598Y+001968
X-009598Y+001968
X-008598Y+001968
X-007598Y+001968
X-006598Y+001968
X-005598Y+001968
X-004598Y+001968
X-003598Y+001968
X-002598Y+001968
X-001598Y+001968
X-000598Y+001968
X+000401Y+001968
X+001401Y+001968
X+002401Y+001968
X+003401Y+001968
X+004401Y+001968
X+005401Y+001968
X+006401Y+001968
X+006401Y+007968
X+005401Y+007968
X+004401Y+007968
X+003401Y+007968
X+002401Y+007968
X+001401Y+007968
X+000401Y+007968
X-000598Y+007968
X-001598Y+007968
X-002598Y+007968
X-003598Y+007968
X-004598Y+007968
X-005598Y+007968
X-006598Y+007968
X-007598Y+007968
X-008598Y+007968
X-009598Y+007968
X-010598Y+007968
X-011598Y+007968
X-012598Y+007968
X-019897Y-009055
X-017897Y-009055
X-018897Y-009055
T03
X+001181Y+015748
X+000393Y+015748
X-000393Y+015748
X-001181Y+015748
X-001968Y+015748
X-002755Y+015748
T04
X-021960Y-002362
X-020960Y-002362
X-019960Y-002362
X-018960Y-002362
X-017960Y-002362
X-016960Y-002362
X-015960Y-002362
X-014960Y-002362
X-013960Y-002362
X-012960Y-002362
X-011960Y-002362
X-010960Y-002362
X-009960Y-002362
X-008960Y-002362
X-007960Y-002362
X-006960Y-002362
X-003543Y+012023
X-003543Y+011023
X-003543Y+010023
T05
X+005118Y-004330
X-006881Y-004330
X+005118Y-006692
X-006881Y-006692
X+005118Y-009448
X-006881Y-009448
X-025196Y+007480
X-025196Y-004519
X-009055Y-011023
X-021055Y-011023
X-013385Y+011417
X-025385Y+011417
M30
